<mxfile host="app.diagrams.net" modified="2022-08-20T15:13:32.532Z" agent="5.0 (Windows NT 10.0; Win64; x64) AppleWebKit/537.36 (KHTML, like Gecko) Chrome/104.0.0.0 Safari/537.36" etag="KdpJaCUt_gnv9URIH-uS" version="20.2.5" type="github">
  <diagram name="Page-1" id="c4acf3e9-155e-7222-9cf6-157b1a14988f">
    <mxGraphModel dx="1157" dy="600" grid="1" gridSize="10" guides="1" tooltips="1" connect="1" arrows="1" fold="1" page="1" pageScale="1" pageWidth="1169" pageHeight="827" background="none" math="0" shadow="0">
      <root>
        <mxCell id="0" />
        <mxCell id="1" parent="0" />
        <mxCell id="Z5wqP4JhBjk2FaYp2823-1" value="Animals&#xa;" style="swimlane;fontStyle=2;align=center;verticalAlign=top;childLayout=stackLayout;horizontal=1;startSize=26;horizontalStack=0;resizeParent=1;resizeParentMax=0;resizeLast=0;collapsible=1;marginBottom=0;fillColor=#a20025;fontColor=#ffffff;strokeColor=#990000;" vertex="1" parent="1">
          <mxGeometry x="490" y="200" width="190" height="160" as="geometry" />
        </mxCell>
        <mxCell id="Z5wqP4JhBjk2FaYp2823-2" value="-speciesName: String&#xa;-weight            : double&#xa;-age                : int" style="text;strokeColor=none;fillColor=none;align=left;verticalAlign=top;spacingLeft=4;spacingRight=4;overflow=hidden;rotatable=0;points=[[0,0.5],[1,0.5]];portConstraint=eastwest;fontSize=13;" vertex="1" parent="Z5wqP4JhBjk2FaYp2823-1">
          <mxGeometry y="26" width="190" height="74" as="geometry" />
        </mxCell>
        <mxCell id="Z5wqP4JhBjk2FaYp2823-3" value="" style="line;strokeWidth=1;fillColor=none;align=left;verticalAlign=middle;spacingTop=-1;spacingLeft=3;spacingRight=3;rotatable=0;labelPosition=right;points=[];portConstraint=eastwest;" vertex="1" parent="Z5wqP4JhBjk2FaYp2823-1">
          <mxGeometry y="100" width="190" height="8" as="geometry" />
        </mxCell>
        <mxCell id="Z5wqP4JhBjk2FaYp2823-4" value="+dosage(): int &#xa;+feedSchedule():String" style="text;strokeColor=none;fillColor=none;align=left;verticalAlign=top;spacingLeft=4;spacingRight=4;overflow=hidden;rotatable=0;points=[[0,0.5],[1,0.5]];portConstraint=eastwest;fontSize=13;" vertex="1" parent="Z5wqP4JhBjk2FaYp2823-1">
          <mxGeometry y="108" width="190" height="52" as="geometry" />
        </mxCell>
        <mxCell id="Z5wqP4JhBjk2FaYp2823-13" value="Rodents" style="swimlane;fontStyle=2;align=center;verticalAlign=top;childLayout=stackLayout;horizontal=1;startSize=26;horizontalStack=0;resizeParent=1;resizeParentMax=0;resizeLast=0;collapsible=1;marginBottom=0;strokeColor=#3700CC;fillColor=#6a00ff;fontColor=#ffffff;" vertex="1" parent="1">
          <mxGeometry x="280" y="60" width="160" height="80" as="geometry" />
        </mxCell>
        <mxCell id="Z5wqP4JhBjk2FaYp2823-15" value="" style="line;strokeWidth=1;fillColor=none;align=left;verticalAlign=middle;spacingTop=-1;spacingLeft=3;spacingRight=3;rotatable=0;labelPosition=right;points=[];portConstraint=eastwest;" vertex="1" parent="Z5wqP4JhBjk2FaYp2823-13">
          <mxGeometry y="26" width="160" height="8" as="geometry" />
        </mxCell>
        <mxCell id="Z5wqP4JhBjk2FaYp2823-16" value="+getDosage();&#xa;+setDosage(int dosage);" style="text;strokeColor=none;fillColor=none;align=left;verticalAlign=top;spacingLeft=4;spacingRight=4;overflow=hidden;rotatable=0;points=[[0,0.5],[1,0.5]];portConstraint=eastwest;fontSize=14;" vertex="1" parent="Z5wqP4JhBjk2FaYp2823-13">
          <mxGeometry y="34" width="160" height="46" as="geometry" />
        </mxCell>
        <mxCell id="Z5wqP4JhBjk2FaYp2823-99" style="edgeStyle=orthogonalEdgeStyle;rounded=0;orthogonalLoop=1;jettySize=auto;html=1;exitX=0.5;exitY=0;exitDx=0;exitDy=0;fontSize=15;endArrow=none;endFill=0;" edge="1" parent="1" source="Z5wqP4JhBjk2FaYp2823-57">
          <mxGeometry relative="1" as="geometry">
            <mxPoint x="840" y="280" as="targetPoint" />
          </mxGeometry>
        </mxCell>
        <mxCell id="Z5wqP4JhBjk2FaYp2823-57" value="Cat" style="swimlane;fontStyle=1;align=center;verticalAlign=top;childLayout=stackLayout;horizontal=1;startSize=26;horizontalStack=0;resizeParent=1;resizeParentMax=0;resizeLast=0;collapsible=1;marginBottom=0;strokeColor=#005700;fillColor=#008a00;fontColor=#ffffff;" vertex="1" parent="1">
          <mxGeometry x="920" y="360" width="210" height="140" as="geometry" />
        </mxCell>
        <mxCell id="Z5wqP4JhBjk2FaYp2823-58" value="" style="line;strokeWidth=1;fillColor=none;align=left;verticalAlign=middle;spacingTop=-1;spacingLeft=3;spacingRight=3;rotatable=0;labelPosition=right;points=[];portConstraint=eastwest;" vertex="1" parent="Z5wqP4JhBjk2FaYp2823-57">
          <mxGeometry y="26" width="210" height="8" as="geometry" />
        </mxCell>
        <mxCell id="Z5wqP4JhBjk2FaYp2823-59" value="+getDosage();&#xa;+setDosage(cat):void&#xa;+getFeedSchedule();&#xa;+setFeedSchedule(cat):void" style="text;strokeColor=none;fillColor=none;align=left;verticalAlign=top;spacingLeft=4;spacingRight=4;overflow=hidden;rotatable=0;points=[[0,0.5],[1,0.5]];portConstraint=eastwest;fontSize=14;" vertex="1" parent="Z5wqP4JhBjk2FaYp2823-57">
          <mxGeometry y="34" width="210" height="106" as="geometry" />
        </mxCell>
        <mxCell id="Z5wqP4JhBjk2FaYp2823-60" value="Lion" style="swimlane;fontStyle=1;align=center;verticalAlign=top;childLayout=stackLayout;horizontal=1;startSize=26;horizontalStack=0;resizeParent=1;resizeParentMax=0;resizeLast=0;collapsible=1;marginBottom=0;strokeColor=#005700;fillColor=#008a00;fontColor=#ffffff;" vertex="1" parent="1">
          <mxGeometry x="920" y="180" width="200" height="130" as="geometry" />
        </mxCell>
        <mxCell id="Z5wqP4JhBjk2FaYp2823-61" value="" style="line;strokeWidth=1;fillColor=none;align=left;verticalAlign=middle;spacingTop=-1;spacingLeft=3;spacingRight=3;rotatable=0;labelPosition=right;points=[];portConstraint=eastwest;" vertex="1" parent="Z5wqP4JhBjk2FaYp2823-60">
          <mxGeometry y="26" width="200" height="8" as="geometry" />
        </mxCell>
        <mxCell id="Z5wqP4JhBjk2FaYp2823-62" value="+getDosage();&#xa;+setDosage(lion):void&#xa;+getFeedSchedule();&#xa;+setFeedSchedule(lion):void" style="text;strokeColor=none;fillColor=none;align=left;verticalAlign=top;spacingLeft=4;spacingRight=4;overflow=hidden;rotatable=0;points=[[0,0.5],[1,0.5]];portConstraint=eastwest;fontSize=14;" vertex="1" parent="Z5wqP4JhBjk2FaYp2823-60">
          <mxGeometry y="34" width="200" height="96" as="geometry" />
        </mxCell>
        <mxCell id="Z5wqP4JhBjk2FaYp2823-88" style="edgeStyle=orthogonalEdgeStyle;rounded=0;orthogonalLoop=1;jettySize=auto;html=1;exitX=0.5;exitY=0;exitDx=0;exitDy=0;fontSize=15;endArrow=none;endFill=0;" edge="1" parent="1" source="Z5wqP4JhBjk2FaYp2823-63">
          <mxGeometry relative="1" as="geometry">
            <mxPoint x="580" y="30" as="targetPoint" />
            <Array as="points">
              <mxPoint x="840" y="40" />
              <mxPoint x="580" y="40" />
            </Array>
          </mxGeometry>
        </mxCell>
        <mxCell id="Z5wqP4JhBjk2FaYp2823-63" value="Felines" style="swimlane;fontStyle=2;align=center;verticalAlign=top;childLayout=stackLayout;horizontal=1;startSize=26;horizontalStack=0;resizeParent=1;resizeParentMax=0;resizeLast=0;collapsible=1;marginBottom=0;strokeColor=#3700CC;fillColor=#6a00ff;fontColor=#ffffff;" vertex="1" parent="1">
          <mxGeometry x="760" y="60" width="160" height="90" as="geometry" />
        </mxCell>
        <mxCell id="Z5wqP4JhBjk2FaYp2823-64" value="" style="line;strokeWidth=1;fillColor=none;align=left;verticalAlign=middle;spacingTop=-1;spacingLeft=3;spacingRight=3;rotatable=0;labelPosition=right;points=[];portConstraint=eastwest;" vertex="1" parent="Z5wqP4JhBjk2FaYp2823-63">
          <mxGeometry y="26" width="160" height="8" as="geometry" />
        </mxCell>
        <mxCell id="Z5wqP4JhBjk2FaYp2823-65" value="+getDosage();&#xa;+setDosage(int dosage);" style="text;strokeColor=none;fillColor=none;align=left;verticalAlign=top;spacingLeft=4;spacingRight=4;overflow=hidden;rotatable=0;points=[[0,0.5],[1,0.5]];portConstraint=eastwest;fontSize=14;" vertex="1" parent="Z5wqP4JhBjk2FaYp2823-63">
          <mxGeometry y="34" width="160" height="56" as="geometry" />
        </mxCell>
        <mxCell id="Z5wqP4JhBjk2FaYp2823-92" style="edgeStyle=orthogonalEdgeStyle;rounded=0;orthogonalLoop=1;jettySize=auto;html=1;exitX=0.5;exitY=0;exitDx=0;exitDy=0;fontSize=15;endArrow=none;endFill=0;" edge="1" parent="1" source="Z5wqP4JhBjk2FaYp2823-66">
          <mxGeometry relative="1" as="geometry">
            <mxPoint x="580" y="620" as="targetPoint" />
            <Array as="points">
              <mxPoint x="610" y="640" />
              <mxPoint x="580" y="640" />
            </Array>
          </mxGeometry>
        </mxCell>
        <mxCell id="Z5wqP4JhBjk2FaYp2823-66" value="Donkey" style="swimlane;fontStyle=1;align=center;verticalAlign=top;childLayout=stackLayout;horizontal=1;startSize=26;horizontalStack=0;resizeParent=1;resizeParentMax=0;resizeLast=0;collapsible=1;marginBottom=0;strokeColor=#005700;fillColor=#008a00;fontColor=#ffffff;" vertex="1" parent="1">
          <mxGeometry x="500" y="670" width="220" height="130" as="geometry" />
        </mxCell>
        <mxCell id="Z5wqP4JhBjk2FaYp2823-67" value="" style="line;strokeWidth=1;fillColor=none;align=left;verticalAlign=middle;spacingTop=-1;spacingLeft=3;spacingRight=3;rotatable=0;labelPosition=right;points=[];portConstraint=eastwest;" vertex="1" parent="Z5wqP4JhBjk2FaYp2823-66">
          <mxGeometry y="26" width="220" height="8" as="geometry" />
        </mxCell>
        <mxCell id="Z5wqP4JhBjk2FaYp2823-68" value="+getDosage();&#xa;+setDosage(donkey):void&#xa;+getFeedSchedule();&#xa;+setFeedSchedule(donkey):void" style="text;strokeColor=none;fillColor=none;align=left;verticalAlign=top;spacingLeft=4;spacingRight=4;overflow=hidden;rotatable=0;points=[[0,0.5],[1,0.5]];portConstraint=eastwest;fontSize=14;" vertex="1" parent="Z5wqP4JhBjk2FaYp2823-66">
          <mxGeometry y="34" width="220" height="96" as="geometry" />
        </mxCell>
        <mxCell id="Z5wqP4JhBjk2FaYp2823-91" style="edgeStyle=orthogonalEdgeStyle;rounded=0;orthogonalLoop=1;jettySize=auto;html=1;exitX=0.5;exitY=0;exitDx=0;exitDy=0;fontSize=15;endArrow=none;endFill=0;" edge="1" parent="1" source="Z5wqP4JhBjk2FaYp2823-69">
          <mxGeometry relative="1" as="geometry">
            <mxPoint x="580" y="620" as="targetPoint" />
            <Array as="points">
              <mxPoint x="330" y="640" />
              <mxPoint x="580" y="640" />
            </Array>
          </mxGeometry>
        </mxCell>
        <mxCell id="Z5wqP4JhBjk2FaYp2823-69" value="Horse" style="swimlane;fontStyle=1;align=center;verticalAlign=top;childLayout=stackLayout;horizontal=1;startSize=26;horizontalStack=0;resizeParent=1;resizeParentMax=0;resizeLast=0;collapsible=1;marginBottom=0;strokeColor=#005700;fillColor=#008a00;fontColor=#ffffff;" vertex="1" parent="1">
          <mxGeometry x="220" y="670" width="220" height="140" as="geometry" />
        </mxCell>
        <mxCell id="Z5wqP4JhBjk2FaYp2823-70" value="" style="line;strokeWidth=1;fillColor=none;align=left;verticalAlign=middle;spacingTop=-1;spacingLeft=3;spacingRight=3;rotatable=0;labelPosition=right;points=[];portConstraint=eastwest;" vertex="1" parent="Z5wqP4JhBjk2FaYp2823-69">
          <mxGeometry y="26" width="220" height="8" as="geometry" />
        </mxCell>
        <mxCell id="Z5wqP4JhBjk2FaYp2823-71" value="+getDosage();&#xa;+setDosage(horse):void&#xa;+getFeedSchedule();&#xa;+setFeedSchedule(horse):void" style="text;strokeColor=none;fillColor=none;align=left;verticalAlign=top;spacingLeft=4;spacingRight=4;overflow=hidden;rotatable=0;points=[[0,0.5],[1,0.5]];portConstraint=eastwest;fontSize=15;" vertex="1" parent="Z5wqP4JhBjk2FaYp2823-69">
          <mxGeometry y="34" width="220" height="106" as="geometry" />
        </mxCell>
        <mxCell id="Z5wqP4JhBjk2FaYp2823-72" value="Horses" style="swimlane;fontStyle=2;align=center;verticalAlign=top;childLayout=stackLayout;horizontal=1;startSize=26;horizontalStack=0;resizeParent=1;resizeParentMax=0;resizeLast=0;collapsible=1;marginBottom=0;strokeColor=#3700CC;fillColor=#6a00ff;fontColor=#ffffff;" vertex="1" parent="1">
          <mxGeometry x="465" y="440" width="240" height="100" as="geometry" />
        </mxCell>
        <mxCell id="Z5wqP4JhBjk2FaYp2823-73" value="" style="line;strokeWidth=1;fillColor=none;align=left;verticalAlign=middle;spacingTop=-1;spacingLeft=3;spacingRight=3;rotatable=0;labelPosition=right;points=[];portConstraint=eastwest;" vertex="1" parent="Z5wqP4JhBjk2FaYp2823-72">
          <mxGeometry y="26" width="240" height="8" as="geometry" />
        </mxCell>
        <mxCell id="Z5wqP4JhBjk2FaYp2823-74" value="+getDosage():&#xa;+getFeedSchedule();" style="text;strokeColor=none;fillColor=none;align=left;verticalAlign=top;spacingLeft=4;spacingRight=4;overflow=hidden;rotatable=0;points=[[0,0.5],[1,0.5]];portConstraint=eastwest;fontSize=14;" vertex="1" parent="Z5wqP4JhBjk2FaYp2823-72">
          <mxGeometry y="34" width="240" height="66" as="geometry" />
        </mxCell>
        <mxCell id="Z5wqP4JhBjk2FaYp2823-93" style="edgeStyle=orthogonalEdgeStyle;rounded=0;orthogonalLoop=1;jettySize=auto;html=1;exitX=0.5;exitY=0;exitDx=0;exitDy=0;fontSize=15;endArrow=none;endFill=0;" edge="1" parent="1" source="Z5wqP4JhBjk2FaYp2823-75">
          <mxGeometry relative="1" as="geometry">
            <mxPoint x="580" y="610" as="targetPoint" />
          </mxGeometry>
        </mxCell>
        <mxCell id="Z5wqP4JhBjk2FaYp2823-75" value="Zebra" style="swimlane;fontStyle=1;align=center;verticalAlign=top;childLayout=stackLayout;horizontal=1;startSize=26;horizontalStack=0;resizeParent=1;resizeParentMax=0;resizeLast=0;collapsible=1;marginBottom=0;strokeColor=#005700;fillColor=#008a00;fontColor=#ffffff;" vertex="1" parent="1">
          <mxGeometry x="790" y="670" width="210" height="130" as="geometry" />
        </mxCell>
        <mxCell id="Z5wqP4JhBjk2FaYp2823-76" value="" style="line;strokeWidth=1;fillColor=none;align=left;verticalAlign=middle;spacingTop=-1;spacingLeft=3;spacingRight=3;rotatable=0;labelPosition=right;points=[];portConstraint=eastwest;" vertex="1" parent="Z5wqP4JhBjk2FaYp2823-75">
          <mxGeometry y="26" width="210" height="8" as="geometry" />
        </mxCell>
        <mxCell id="Z5wqP4JhBjk2FaYp2823-77" value="+getDosage();&#xa;+setDosage(zebra):void&#xa;+getFeedSchedule();&#xa;+setFeedSchedule(zebra):void" style="text;strokeColor=none;fillColor=none;align=left;verticalAlign=top;spacingLeft=4;spacingRight=4;overflow=hidden;rotatable=0;points=[[0,0.5],[1,0.5]];portConstraint=eastwest;fontSize=14;" vertex="1" parent="Z5wqP4JhBjk2FaYp2823-75">
          <mxGeometry y="34" width="210" height="96" as="geometry" />
        </mxCell>
        <mxCell id="Z5wqP4JhBjk2FaYp2823-79" value="Rat" style="swimlane;fontStyle=1;align=center;verticalAlign=top;childLayout=stackLayout;horizontal=1;startSize=26;horizontalStack=0;resizeParent=1;resizeParentMax=0;resizeLast=0;collapsible=1;marginBottom=0;strokeColor=#005700;fillColor=#008a00;fontColor=#ffffff;" vertex="1" parent="1">
          <mxGeometry x="40" y="180" width="210" height="120" as="geometry" />
        </mxCell>
        <mxCell id="Z5wqP4JhBjk2FaYp2823-80" value="" style="line;strokeWidth=1;fillColor=none;align=left;verticalAlign=middle;spacingTop=-1;spacingLeft=3;spacingRight=3;rotatable=0;labelPosition=right;points=[];portConstraint=eastwest;" vertex="1" parent="Z5wqP4JhBjk2FaYp2823-79">
          <mxGeometry y="26" width="210" height="8" as="geometry" />
        </mxCell>
        <mxCell id="Z5wqP4JhBjk2FaYp2823-81" value="+getDosage();&#xa;+setDosage(rat):void&#xa;+getFeedSchedule();&#xa;+setFeedSchedule(rat):void" style="text;strokeColor=none;fillColor=none;align=left;verticalAlign=top;spacingLeft=4;spacingRight=4;overflow=hidden;rotatable=0;points=[[0,0.5],[1,0.5]];portConstraint=eastwest;fontSize=14;" vertex="1" parent="Z5wqP4JhBjk2FaYp2823-79">
          <mxGeometry y="34" width="210" height="86" as="geometry" />
        </mxCell>
        <mxCell id="Z5wqP4JhBjk2FaYp2823-95" style="edgeStyle=orthogonalEdgeStyle;rounded=0;orthogonalLoop=1;jettySize=auto;html=1;exitX=0.5;exitY=0;exitDx=0;exitDy=0;fontSize=15;endArrow=none;endFill=0;" edge="1" parent="1" source="Z5wqP4JhBjk2FaYp2823-82">
          <mxGeometry relative="1" as="geometry">
            <mxPoint x="350" y="310" as="targetPoint" />
          </mxGeometry>
        </mxCell>
        <mxCell id="Z5wqP4JhBjk2FaYp2823-82" value="Beaver" style="swimlane;fontStyle=1;align=center;verticalAlign=top;childLayout=stackLayout;horizontal=1;startSize=26;horizontalStack=0;resizeParent=1;resizeParentMax=0;resizeLast=0;collapsible=1;marginBottom=0;strokeColor=#005700;fillColor=#008a00;fontColor=#ffffff;" vertex="1" parent="1">
          <mxGeometry x="30" y="350" width="220" height="140" as="geometry" />
        </mxCell>
        <mxCell id="Z5wqP4JhBjk2FaYp2823-83" value="" style="line;strokeWidth=1;fillColor=none;align=left;verticalAlign=middle;spacingTop=-1;spacingLeft=3;spacingRight=3;rotatable=0;labelPosition=right;points=[];portConstraint=eastwest;" vertex="1" parent="Z5wqP4JhBjk2FaYp2823-82">
          <mxGeometry y="26" width="220" height="8" as="geometry" />
        </mxCell>
        <mxCell id="Z5wqP4JhBjk2FaYp2823-84" value="+getDosage();&#xa;+setDosage(beaver):void&#xa;+getFeedSchedule();&#xa;+setFeedSchedule(beaver):void" style="text;strokeColor=none;fillColor=none;align=left;verticalAlign=top;spacingLeft=4;spacingRight=4;overflow=hidden;rotatable=0;points=[[0,0.5],[1,0.5]];portConstraint=eastwest;fontSize=14;" vertex="1" parent="Z5wqP4JhBjk2FaYp2823-82">
          <mxGeometry y="34" width="220" height="106" as="geometry" />
        </mxCell>
        <mxCell id="Z5wqP4JhBjk2FaYp2823-86" value="Extends" style="endArrow=block;endSize=16;endFill=0;html=1;rounded=0;fontSize=15;entryX=0.5;entryY=0;entryDx=0;entryDy=0;exitX=0.5;exitY=0;exitDx=0;exitDy=0;" edge="1" parent="1" source="Z5wqP4JhBjk2FaYp2823-13" target="Z5wqP4JhBjk2FaYp2823-1">
          <mxGeometry width="160" relative="1" as="geometry">
            <mxPoint x="380" y="290" as="sourcePoint" />
            <mxPoint x="540" y="290" as="targetPoint" />
            <Array as="points">
              <mxPoint x="360" y="30" />
              <mxPoint x="585" y="30" />
            </Array>
          </mxGeometry>
        </mxCell>
        <mxCell id="Z5wqP4JhBjk2FaYp2823-89" value="Extends" style="endArrow=block;endSize=16;endFill=0;html=1;rounded=0;fontSize=15;exitX=0.5;exitY=0;exitDx=0;exitDy=0;entryX=0.489;entryY=1.077;entryDx=0;entryDy=0;entryPerimeter=0;" edge="1" parent="1" source="Z5wqP4JhBjk2FaYp2823-72" target="Z5wqP4JhBjk2FaYp2823-4">
          <mxGeometry width="160" relative="1" as="geometry">
            <mxPoint x="380" y="420" as="sourcePoint" />
            <mxPoint x="540" y="420" as="targetPoint" />
          </mxGeometry>
        </mxCell>
        <mxCell id="Z5wqP4JhBjk2FaYp2823-90" value="Extends" style="endArrow=block;endSize=16;endFill=0;html=1;rounded=0;fontSize=15;entryX=0.475;entryY=1.061;entryDx=0;entryDy=0;entryPerimeter=0;" edge="1" parent="1" target="Z5wqP4JhBjk2FaYp2823-74">
          <mxGeometry width="160" relative="1" as="geometry">
            <mxPoint x="580" y="640" as="sourcePoint" />
            <mxPoint x="540" y="420" as="targetPoint" />
          </mxGeometry>
        </mxCell>
        <mxCell id="Z5wqP4JhBjk2FaYp2823-94" value="Extends" style="endArrow=block;endSize=16;endFill=0;html=1;rounded=0;fontSize=15;entryX=0.427;entryY=1;entryDx=0;entryDy=0;entryPerimeter=0;" edge="1" parent="1" target="Z5wqP4JhBjk2FaYp2823-16">
          <mxGeometry width="160" relative="1" as="geometry">
            <mxPoint x="348" y="320" as="sourcePoint" />
            <mxPoint x="540" y="290" as="targetPoint" />
          </mxGeometry>
        </mxCell>
        <mxCell id="Z5wqP4JhBjk2FaYp2823-96" style="edgeStyle=orthogonalEdgeStyle;rounded=0;orthogonalLoop=1;jettySize=auto;html=1;exitX=1;exitY=0.5;exitDx=0;exitDy=0;fontSize=15;endArrow=none;endFill=0;" edge="1" parent="1" source="Z5wqP4JhBjk2FaYp2823-81">
          <mxGeometry relative="1" as="geometry">
            <mxPoint x="350" y="257.33333333333337" as="targetPoint" />
          </mxGeometry>
        </mxCell>
        <mxCell id="Z5wqP4JhBjk2FaYp2823-97" value="Extends" style="endArrow=block;endSize=16;endFill=0;html=1;rounded=0;fontSize=15;" edge="1" parent="1">
          <mxGeometry width="160" relative="1" as="geometry">
            <mxPoint x="840" y="320" as="sourcePoint" />
            <mxPoint x="840" y="150" as="targetPoint" />
          </mxGeometry>
        </mxCell>
        <mxCell id="Z5wqP4JhBjk2FaYp2823-98" style="edgeStyle=orthogonalEdgeStyle;rounded=0;orthogonalLoop=1;jettySize=auto;html=1;exitX=0;exitY=0.5;exitDx=0;exitDy=0;fontSize=15;endArrow=none;endFill=0;" edge="1" parent="1" source="Z5wqP4JhBjk2FaYp2823-62">
          <mxGeometry relative="1" as="geometry">
            <mxPoint x="840" y="262.66666666666663" as="targetPoint" />
          </mxGeometry>
        </mxCell>
      </root>
    </mxGraphModel>
  </diagram>
</mxfile>
